<?xml version="1.0" encoding="UTF-8"?>
<svg width="32px" height="32px" viewBox="0 0 32 32" version="1.1" xmlns="http://www.w3.org/2000/svg">
  <!-- Background circle -->
  <circle cx="16" cy="16" r="15" fill="#4a6cf7" />
  
  <!-- Quiz icon - stylized Q with checkmark -->
  <path d="M16,7 C11.6,7 8,10.6 8,15 C8,19.4 11.6,23 16,23 C17.9,23 19.6,22.3 21,21.1 L23.6,23.7 C23.9,24 24.4,24 24.7,23.7 C25,23.4 25,22.9 24.7,22.6 L22.1,20 C23.3,18.6 24,16.9 24,15 C24,10.6 20.4,7 16,7 Z M16,21 C12.7,21 10,18.3 10,15 C10,11.7 12.7,9 16,9 C19.3,9 22,11.7 22,15 C22,18.3 19.3,21 16,21 Z" fill="#ffffff"/>
  
  <!-- Checkmark inside the Q -->
  <path d="M15,18 L13,16 C12.7,15.7 12.2,15.7 11.9,16 C11.6,16.3 11.6,16.8 11.9,17.1 L14.4,19.6 C14.7,19.9 15.2,19.9 15.5,19.6 L20.1,15 C20.4,14.7 20.4,14.2 20.1,13.9 C19.8,13.6 19.3,13.6 19,13.9 L15,18 Z" fill="#ffffff"/>
</svg>
